<svg preserveAspectRatio="none" width="100%" height="100%" overflow="visible" style="display: block;" viewBox="0 0 32 32" fill="none" xmlns="http://www.w3.org/2000/svg">
<g id="archive-book">
<g id="Vector" opacity="0">
</g>
<path id="Vector_2" d="M19.9067 3.33333V11.2C19.9067 11.7867 19.2133 12.08 18.7867 11.6933L16.4533 9.54667C16.2 9.30667 15.8 9.30667 15.5467 9.54667L13.2133 11.68C12.7867 12.08 12.0933 11.7733 12.0933 11.2V3.33333C12.0933 2.96 12.3867 2.66667 12.76 2.66667H19.24C19.6133 2.66667 19.9067 2.96 19.9067 3.33333Z" fill="var(--fill-0, #E18216)"/>
<path id="Vector_3" d="M22.64 2.74667C22.2533 2.69333 21.9067 3.02667 21.9067 3.41333V11.44C21.9067 12.4533 21.3067 13.3733 20.3733 13.7867C19.44 14.1867 18.36 14.0133 17.6133 13.32L16.4533 12.2533C16.2 12.0133 15.8133 12.0133 15.5467 12.2533L14.3867 13.32C13.9067 13.7733 13.28 14 12.6533 14C12.3067 14 11.96 13.9333 11.6267 13.7867C10.6933 13.3733 10.0933 12.4533 10.0933 11.44V3.41333C10.0933 3.02667 9.74667 2.69333 9.36 2.74667C5.62667 3.21333 4 5.73333 4 9.33333V22.6667C4 26.6667 6 29.3333 10.6667 29.3333H21.3333C26 29.3333 28 26.6667 28 22.6667V9.33333C28 5.73333 26.3733 3.21333 22.64 2.74667ZM23.3333 25H12C11.4533 25 11 24.5467 11 24C11 23.4533 11.4533 23 12 23H23.3333C23.88 23 24.3333 23.4533 24.3333 24C24.3333 24.5467 23.88 25 23.3333 25ZM23.3333 19.6667H17.6667C17.12 19.6667 16.6667 19.2133 16.6667 18.6667C16.6667 18.12 17.12 17.6667 17.6667 17.6667H23.3333C23.88 17.6667 24.3333 18.12 24.3333 18.6667C24.3333 19.2133 23.88 19.6667 23.3333 19.6667Z" fill="var(--fill-0, #E18216)"/>
</g>
</svg>
