<svg preserveAspectRatio="none" width="100%" height="100%" overflow="visible" style="display: block;" viewBox="0 0 1400 1080" fill="none" xmlns="http://www.w3.org/2000/svg">
<g id="Confetti 1" clip-path="url(#clip0_0_6)">
<path id="Vector" fill-rule="evenodd" clip-rule="evenodd" d="M518.328 1374.21C512.056 1367.32 509.009 1362.79 505.341 1354.12C501.07 1355.85 497.725 1358.07 495.439 1361.71C497.333 1367.77 501.272 1374.58 507.406 1383.18C510.482 1377.15 513.025 1374.57 518.328 1374.21Z" fill="var(--fill-0, #FFC700)"/>
<path id="Vector_2" fill-rule="evenodd" clip-rule="evenodd" d="M520.56 1348.56C513.032 1343.07 509.137 1339.24 503.801 1331.49C499.964 1334.04 497.135 1336.89 495.626 1340.91C498.699 1346.47 503.926 1352.35 511.664 1359.55C513.465 1353.01 515.437 1349.97 520.56 1348.56Z" fill="var(--fill-0, #61BA47)"/>
<path id="Vector_3" fill-rule="evenodd" clip-rule="evenodd" d="M1211.08 816.943C1220.18 818.947 1225.28 820.89 1233.28 825.855C1235.77 821.979 1237.22 818.23 1236.98 813.939C1231.94 810.086 1224.79 806.798 1214.82 803.308C1215.79 810.013 1215.2 813.589 1211.08 816.943Z" fill="var(--fill-0, #FFC700)"/>
<path id="Vector_4" fill-rule="evenodd" clip-rule="evenodd" d="M399.186 954.192C392.541 953.059 388.236 955.413 381.873 959.166C380.569 966.2 378.825 971.379 378.587 977.336C385.578 980.503 389.532 984.165 393.499 992.971C398.68 978.113 399.438 969.125 399.186 954.192Z" fill="var(--fill-0, #007AFF)"/>
<path id="Vector_5" fill-rule="evenodd" clip-rule="evenodd" d="M1292.15 1722.29C1285.83 1715.45 1282.75 1710.94 1279.02 1702.3C1274.76 1704.06 1271.43 1706.31 1269.17 1709.96C1271.11 1716.01 1275.1 1722.79 1281.29 1731.35C1284.33 1725.29 1286.85 1722.69 1292.15 1722.29Z" fill="var(--fill-0, #F74F9E)"/>
<path id="Vector_6" fill-rule="evenodd" clip-rule="evenodd" d="M989.452 756.884C990.161 763.588 993.593 767.095 998.929 772.204C1006.05 771.554 1011.51 771.83 1017.31 770.447C1018.47 762.86 1020.92 758.062 1028.32 751.859C1012.62 750.894 1003.76 752.599 989.452 756.884Z" fill="var(--fill-0, #F74F9E)"/>
<path id="Vector_7" fill-rule="evenodd" clip-rule="evenodd" d="M1261.02 818.94C1267.76 819.129 1271.69 816.195 1277.46 811.585C1277.77 804.438 1278.76 799.066 1278.16 793.134C1270.8 790.979 1266.37 787.909 1261.21 779.747C1258.16 795.185 1258.67 804.191 1261.02 818.94Z" fill="var(--fill-0, #F74F9E)"/>
<path id="Vector_8" fill-rule="evenodd" clip-rule="evenodd" d="M1262.77 1316.74C1267.86 1321.16 1272.76 1321.39 1280.15 1321.5C1284.92 1316.17 1289.1 1312.65 1292.41 1307.69C1288.08 1301.35 1286.61 1296.16 1287.8 1286.58C1275.65 1296.57 1270.33 1303.86 1262.77 1316.74Z" fill="var(--fill-0, #FF5257)"/>
<path id="Vector_9" fill-rule="evenodd" clip-rule="evenodd" d="M692.657 1347.9C686.678 1355.04 682.598 1358.67 674.499 1363.47C676.786 1367.47 679.443 1370.49 683.355 1372.26C689.102 1369.57 695.32 1364.75 703.023 1357.52C696.628 1355.28 693.728 1353.11 692.657 1347.9Z" fill="var(--fill-0, #007AFF)"/>
<path id="Vector_10" fill-rule="evenodd" clip-rule="evenodd" d="M90.7655 1332.07C81.8194 1334.67 76.4085 1335.4 67.0085 1334.87C66.6756 1339.47 67.1994 1343.45 69.4559 1347.11C75.7268 1348.08 83.5763 1347.55 94.0059 1345.84C89.9449 1340.41 88.7498 1336.99 90.7655 1332.07Z" fill="var(--fill-0, #61BA47)"/>
<path id="Vector_11" fill-rule="evenodd" clip-rule="evenodd" d="M1222.65 783.114C1229.23 789.711 1232.48 794.102 1236.53 802.6C1240.72 800.682 1243.96 798.307 1246.08 794.57C1243.92 788.605 1239.68 781.979 1233.16 773.656C1230.36 779.824 1227.94 782.517 1222.65 783.114Z" fill="var(--fill-0, #FF5257)"/>
<path id="Vector_12" fill-rule="evenodd" clip-rule="evenodd" d="M770.609 1345.07C776.669 1348.03 781.462 1346.98 788.623 1345.16C791.848 1338.77 794.975 1334.29 796.876 1328.64C791.055 1323.64 788.287 1319.02 786.951 1309.45C777.808 1322.26 774.559 1330.67 770.609 1345.07Z" fill="var(--fill-0, #A550A7)"/>
<path id="Vector_13" fill-rule="evenodd" clip-rule="evenodd" d="M389.122 804.266C392.815 798.627 392.376 793.74 391.476 786.407C385.548 782.403 381.497 778.736 376.13 776.138C370.435 781.282 365.499 783.445 355.841 783.565C367.394 794.249 375.332 798.533 389.122 804.266Z" fill="var(--fill-0, #61BA47)"/>
<path id="Vector_14" fill-rule="evenodd" clip-rule="evenodd" d="M935.512 1608.53C944.063 1612.23 948.705 1615.1 955.616 1621.5C958.798 1618.16 960.93 1614.76 961.516 1610.5C957.297 1605.76 950.904 1601.18 941.771 1595.86C941.452 1602.62 940.197 1606.02 935.512 1608.53Z" fill="var(--fill-0, #007AFF)"/>
<path id="Vector_15" fill-rule="evenodd" clip-rule="evenodd" d="M1171.81 1762.52C1163.16 1759.07 1158.44 1756.32 1151.36 1750.12C1148.27 1753.54 1146.23 1757 1145.76 1761.28C1150.11 1765.9 1156.63 1770.3 1165.9 1775.37C1166.03 1768.6 1167.2 1765.16 1171.81 1762.52Z" fill="var(--fill-0, #FFC700)"/>
<path id="Vector_16" fill-rule="evenodd" clip-rule="evenodd" d="M1249.32 1394.81C1253.51 1400.09 1258.29 1401.21 1265.53 1402.66C1271.19 1398.29 1275.95 1395.6 1280.1 1391.32C1277.01 1384.3 1276.51 1378.93 1279.44 1369.73C1265.66 1377.33 1259.1 1383.52 1249.32 1394.81Z" fill="var(--fill-0, #61BA47)"/>
<path id="Vector_17" fill-rule="evenodd" clip-rule="evenodd" d="M1387.02 1616.17C1393.58 1617.73 1398.03 1615.66 1404.62 1612.33C1406.38 1605.39 1408.46 1600.34 1409.08 1594.41C1402.31 1590.8 1398.6 1586.89 1395.22 1577.84C1389.08 1592.33 1387.74 1601.25 1387.02 1616.17Z" fill="var(--fill-0, #F74F9E)"/>
<path id="Vector_18" fill-rule="evenodd" clip-rule="evenodd" d="M80.3263 661.618C75.536 669.606 72.0721 673.827 64.8223 679.834C67.706 683.428 70.8012 685.991 74.943 687.134C80.1985 683.578 85.5875 677.846 92.0662 669.496C85.4004 668.286 82.1963 666.593 80.3263 661.618Z" fill="var(--fill-0, #A550A7)"/>
<path id="Vector_19" fill-rule="evenodd" clip-rule="evenodd" d="M1381.77 1937.1C1377.19 1932.15 1372.34 1931.4 1365.01 1930.51C1359.69 1935.3 1355.16 1938.34 1351.34 1942.93C1354.96 1949.69 1355.87 1955.01 1353.66 1964.41C1366.82 1955.77 1372.89 1949.1 1381.77 1937.1Z" fill="var(--fill-0, #FF5257)"/>
<path id="Vector_20" fill-rule="evenodd" clip-rule="evenodd" d="M392.323 1327.3C391.478 1318.02 391.785 1312.57 394.094 1303.44C389.646 1302.24 385.635 1302 381.616 1303.52C379.47 1309.49 378.501 1317.3 378.196 1327.86C384.292 1324.91 387.878 1324.39 392.323 1327.3Z" fill="var(--fill-0, #007AFF)"/>
<path id="Vector_21" fill-rule="evenodd" clip-rule="evenodd" d="M1218.14 859.525C1214.66 850.888 1213.38 845.579 1212.95 836.174C1208.35 836.309 1204.44 837.234 1201.03 839.849C1200.7 846.186 1202.02 853.941 1204.78 864.144C1209.76 859.554 1213.05 858.018 1218.14 859.525Z" fill="var(--fill-0, #61BA47)"/>
<path id="Vector_22" fill-rule="evenodd" clip-rule="evenodd" d="M1261.87 1626.88C1256.22 1619.49 1253.57 1614.71 1250.66 1605.76C1246.26 1607.11 1242.73 1609.04 1240.14 1612.47C1241.51 1618.67 1244.85 1625.79 1250.22 1634.89C1253.8 1629.14 1256.56 1626.79 1261.87 1626.88Z" fill="var(--fill-0, #007AFF)"/>
<path id="Vector_23" fill-rule="evenodd" clip-rule="evenodd" d="M1081.09 874.028C1077.93 865.266 1076.85 859.914 1076.78 850.499C1072.17 850.461 1068.23 851.238 1064.73 853.724C1064.16 860.045 1065.19 867.844 1067.57 878.143C1072.72 873.743 1076.06 872.331 1081.09 874.028Z" fill="var(--fill-0, #FF5257)"/>
<path id="Vector_24" fill-rule="evenodd" clip-rule="evenodd" d="M652.912 1336.97C651.669 1330.35 647.967 1327.13 642.239 1322.46C635.19 1323.68 629.728 1323.84 624.058 1325.69C623.514 1333.34 621.451 1338.32 614.569 1345.1C630.302 1344.8 638.995 1342.39 652.912 1336.97Z" fill="var(--fill-0, #F74F9E)"/>
<path id="Vector_25" fill-rule="evenodd" clip-rule="evenodd" d="M966.629 -144.241C970.267 -149.916 969.781 -154.798 968.81 -162.122C962.843 -166.068 958.756 -169.696 953.365 -172.241C947.72 -167.042 942.805 -164.831 933.149 -164.618C944.805 -154.046 952.784 -149.839 966.629 -144.241Z" fill="var(--fill-0, #A550A7)"/>
<path id="Vector_26" fill-rule="evenodd" clip-rule="evenodd" d="M912.851 1572.59C912.97 1579.33 916.08 1583.12 920.948 1588.68C928.101 1588.66 933.514 1589.41 939.412 1588.54C941.228 1581.09 944.094 1576.52 952.013 1570.99C936.452 1568.65 927.479 1569.58 912.851 1572.59Z" fill="var(--fill-0, #007AFF)"/>
<path id="Vector_27" fill-rule="evenodd" clip-rule="evenodd" d="M126.715 698.26C121.064 694.584 116.179 695.037 108.849 695.959C104.862 701.898 101.207 705.961 98.6253 711.335C103.786 717.015 105.963 721.945 106.112 731.602C116.762 720.018 121.022 712.068 126.715 698.26Z" fill="var(--fill-0, #F74F9E)"/>
<path id="Vector_28" fill-rule="evenodd" clip-rule="evenodd" d="M941.725 531.73C944.733 525.698 943.728 520.896 941.978 513.718C935.623 510.433 931.171 507.265 925.538 505.311C920.482 511.085 915.832 513.809 906.255 515.056C918.975 524.318 927.359 527.646 941.725 531.73Z" fill="var(--fill-0, #F74F9E)"/>
<path id="Vector_29" fill-rule="evenodd" clip-rule="evenodd" d="M61.4354 646.821C56.265 639.073 53.9315 634.136 51.604 625.014C47.1219 626.082 43.4813 627.783 40.6756 631.038C41.6412 637.309 44.5165 644.633 49.2917 654.061C53.237 648.554 56.1385 646.382 61.4354 646.821Z" fill="var(--fill-0, #F74F9E)"/>
<path id="Vector_30" fill-rule="evenodd" clip-rule="evenodd" d="M1276.19 621.326C1273.26 615.256 1268.85 613.114 1262.1 610.107C1255.61 613.125 1250.38 614.709 1245.39 617.97C1246.87 625.501 1246.18 630.846 1241.3 639.186C1256.41 634.788 1264.17 630.192 1276.19 621.326Z" fill="var(--fill-0, #F74F9E)"/>
<path id="Vector_31" fill-rule="evenodd" clip-rule="evenodd" d="M155.015 683.175C154.612 673.87 155.176 668.438 157.916 659.431C153.529 658.021 149.534 657.588 145.448 658.915C143.022 664.779 141.683 672.532 140.877 683.07C147.107 680.406 150.714 680.054 155.015 683.175Z" fill="var(--fill-0, #007AFF)"/>
<path id="Vector_32" fill-rule="evenodd" clip-rule="evenodd" d="M67.7794 833.702C67.4788 840.436 70.3479 844.416 74.8609 850.265C82.0021 850.687 87.3573 851.775 93.2982 851.273C95.5742 843.944 98.718 839.567 106.964 834.539C91.5787 831.239 82.5658 831.602 67.7794 833.702Z" fill="var(--fill-0, #61BA47)"/>
<path id="Vector_33" fill-rule="evenodd" clip-rule="evenodd" d="M400.378 924.193C393.174 918.289 389.503 914.247 384.617 906.198C380.641 908.527 377.654 911.216 375.919 915.147C378.671 920.864 383.556 927.032 390.872 934.659C393.041 928.24 395.184 925.317 400.378 924.193Z" fill="var(--fill-0, #61BA47)"/>
<path id="Vector_34" fill-rule="evenodd" clip-rule="evenodd" d="M1254.64 1299.28C1263.91 1300.16 1269.21 1301.47 1277.76 1305.42C1279.76 1301.27 1280.74 1297.37 1279.99 1293.14C1274.51 1289.93 1267.02 1287.54 1256.69 1285.29C1258.47 1291.83 1258.32 1295.45 1254.64 1299.28Z" fill="var(--fill-0, #FF5257)"/>
<path id="Vector_35" fill-rule="evenodd" clip-rule="evenodd" d="M191.309 934.262C194.349 943.066 195.356 948.433 195.298 957.848C199.905 957.949 203.857 957.225 207.396 954.787C208.049 948.475 207.122 940.662 204.89 930.332C199.679 934.661 196.322 936.027 191.309 934.262Z" fill="var(--fill-0, #A550A7)"/>
<path id="Vector_36" fill-rule="evenodd" clip-rule="evenodd" d="M1187.08 852.707C1177.77 853.134 1172.34 852.584 1163.33 849.867C1161.93 854.257 1161.5 858.254 1162.84 862.337C1168.71 864.748 1176.47 866.066 1187.01 866.845C1184.33 860.622 1183.97 857.016 1187.08 852.707Z" fill="var(--fill-0, #FF5257)"/>
<path id="Vector_37" fill-rule="evenodd" clip-rule="evenodd" d="M222.918 752.447C222.619 759.182 225.489 763.161 230.004 769.009C237.145 769.429 242.5 770.516 248.441 770.012C250.715 762.683 253.858 758.304 262.103 753.274C246.716 749.978 237.704 750.343 222.918 752.447Z" fill="var(--fill-0, #F74F9E)"/>
<path id="Vector_38" fill-rule="evenodd" clip-rule="evenodd" d="M414.822 931.445C412.68 925.053 408.572 922.37 402.257 918.536C395.442 920.711 390.054 921.621 384.691 924.226C385.203 931.884 383.844 937.099 377.957 944.756C393.5 942.302 401.78 938.722 414.822 931.445Z" fill="var(--fill-0, #61BA47)"/>
<path id="Vector_39" fill-rule="evenodd" clip-rule="evenodd" d="M300.673 -184.689C294.048 -183.442 290.829 -179.739 286.167 -174.009C287.389 -166.96 287.554 -161.498 289.4 -155.829C297.056 -155.289 302.036 -153.229 308.816 -146.35C308.511 -162.083 306.098 -170.775 300.673 -184.689Z" fill="var(--fill-0, #A550A7)"/>
<path id="Vector_40" fill-rule="evenodd" clip-rule="evenodd" d="M858.602 1135.39C862.233 1141.07 866.87 1142.68 873.927 1144.86C880.009 1141.09 885.015 1138.9 889.584 1135.07C887.226 1127.77 887.277 1122.38 891.126 1113.52C876.645 1119.68 869.484 1125.16 858.602 1135.39Z" fill="var(--fill-0, #FFC700)"/>
<path id="Vector_41" fill-rule="evenodd" clip-rule="evenodd" d="M368.397 588.312C363.128 592.518 362.019 597.297 360.585 604.544C364.967 610.199 367.671 614.947 371.959 619.09C378.975 615.981 384.34 615.468 393.552 618.368C385.912 604.612 379.708 598.064 368.397 588.312Z" fill="var(--fill-0, #FF5257)"/>
<path id="Vector_42" fill-rule="evenodd" clip-rule="evenodd" d="M918.052 694.95C913.888 689.649 909.118 688.502 901.882 687.011C896.193 691.348 891.423 694.015 887.247 698.27C890.301 705.31 890.772 710.679 887.798 719.868C901.615 712.337 908.211 706.185 918.052 694.95Z" fill="var(--fill-0, #F74F9E)"/>
<path id="Vector_43" fill-rule="evenodd" clip-rule="evenodd" d="M1218 1075.55C1215.44 1069.31 1211.17 1066.91 1204.61 1063.5C1197.96 1066.12 1192.64 1067.38 1187.46 1070.33C1188.48 1077.94 1187.46 1083.23 1182.09 1091.26C1197.44 1087.79 1205.47 1083.67 1218 1075.55Z" fill="var(--fill-0, #F74F9E)"/>
<path id="Vector_44" fill-rule="evenodd" clip-rule="evenodd" d="M370.247 1267.35C374.458 1272.62 379.239 1273.72 386.488 1275.15C392.137 1270.76 396.883 1268.05 401.02 1263.75C397.902 1256.74 397.382 1251.38 400.272 1242.16C386.524 1249.82 379.984 1256.03 370.247 1267.35Z" fill="var(--fill-0, #FF5257)"/>
<path id="Vector_45" fill-rule="evenodd" clip-rule="evenodd" d="M518.332 1150.55C516.106 1156.92 517.708 1161.55 520.346 1168.45C527.064 1170.91 531.879 1173.5 537.713 1174.73C542.002 1168.36 546.273 1165.08 555.618 1162.64C541.833 1155.05 533.097 1152.8 518.332 1150.55Z" fill="var(--fill-0, #F74F9E)"/>
<path id="Vector_46" fill-rule="evenodd" clip-rule="evenodd" d="M645.247 1374.12C638.539 1373.46 634.41 1376.11 628.328 1380.31C627.524 1387.41 626.15 1392.7 626.333 1398.66C633.53 1401.33 637.733 1404.7 642.311 1413.21C646.431 1398.02 646.552 1389 645.247 1374.12Z" fill="var(--fill-0, #A550A7)"/>
<path id="Vector_47" fill-rule="evenodd" clip-rule="evenodd" d="M94.7531 697.68C98.648 689.219 101.633 684.646 108.188 677.888C104.931 674.628 101.576 672.417 97.3345 671.73C92.4962 675.835 87.7613 682.119 82.2273 691.123C88.9851 691.601 92.3541 692.937 94.7531 697.68Z" fill="var(--fill-0, #007AFF)"/>
<path id="Vector_48" fill-rule="evenodd" clip-rule="evenodd" d="M1008.32 809.665C1000.59 814.861 995.661 817.21 986.546 819.568C987.63 824.046 989.343 827.681 992.606 830.476C998.875 829.49 1006.19 826.591 1015.6 821.785C1010.08 817.858 1007.9 814.963 1008.32 809.665Z" fill="var(--fill-0, #61BA47)"/>
<path id="Vector_49" fill-rule="evenodd" clip-rule="evenodd" d="M876.94 749.595C873.482 755.382 874.12 760.247 875.319 767.536C881.406 771.294 885.605 774.792 891.073 777.168C896.553 771.795 901.396 769.432 911.041 768.917C899.061 758.714 890.954 754.759 876.94 749.595Z" fill="var(--fill-0, #A550A7)"/>
<path id="Vector_50" fill-rule="evenodd" clip-rule="evenodd" d="M645.541 577.572C652.527 571.412 657.108 568.439 665.837 564.912C664.179 560.613 662.006 557.233 658.405 554.888C652.319 556.684 645.446 560.512 636.741 566.506C642.727 569.679 645.267 572.264 645.541 577.572Z" fill="var(--fill-0, #A550A7)"/>
<path id="Vector_51" fill-rule="evenodd" clip-rule="evenodd" d="M204.861 1031.19C214.137 1032.03 219.446 1033.31 228.009 1037.22C229.99 1033.06 230.95 1029.16 230.177 1024.93C224.688 1021.75 217.182 1019.39 206.845 1017.19C208.657 1023.72 208.526 1027.34 204.861 1031.19Z" fill="var(--fill-0, #F74F9E)"/>
<path id="Vector_52" fill-rule="evenodd" clip-rule="evenodd" d="M159.681 722.364C165.16 726.291 170.061 726.06 177.425 725.47C181.676 719.717 185.51 715.823 188.332 710.571C183.433 704.664 181.481 699.641 181.769 689.987C170.606 701.078 165.991 708.828 159.681 722.364Z" fill="var(--fill-0, #FFC700)"/>
<path id="Vector_53" fill-rule="evenodd" clip-rule="evenodd" d="M971.511 2.4021C978.074 0.860763 981.124 -2.98219 985.526 -8.91518C983.991 -15.9021 983.583 -21.3515 981.485 -26.9323C973.813 -27.1303 968.746 -28.9659 961.666 -35.5352C962.672 -19.8317 965.471 -11.2567 971.511 2.4021Z" fill="var(--fill-0, #FFC700)"/>
<path id="Vector_54" fill-rule="evenodd" clip-rule="evenodd" d="M435.144 907.442C441.75 906.101 444.917 902.353 449.497 896.557C448.175 889.526 447.934 884.067 446.007 878.425C438.344 877.993 433.336 876.004 426.459 869.222C426.986 884.949 429.523 893.605 435.144 907.442Z" fill="var(--fill-0, #FFC700)"/>
<path id="Vector_55" fill-rule="evenodd" clip-rule="evenodd" d="M581.124 1427.13C588.71 1421.73 593.574 1419.25 602.621 1416.64C601.417 1412.19 599.605 1408.61 596.267 1405.9C590.028 1407.06 582.795 1410.16 573.517 1415.22C579.142 1418.99 581.401 1421.83 581.124 1427.13Z" fill="var(--fill-0, #FF5257)"/>
<path id="Vector_56" fill-rule="evenodd" clip-rule="evenodd" d="M1194.08 755.369C1185.67 759.383 1180.45 760.989 1171.09 761.993C1171.51 766.582 1172.68 770.428 1175.5 773.668C1181.84 773.606 1189.5 771.804 1199.51 768.421C1194.62 763.731 1192.89 760.55 1194.08 755.369Z" fill="var(--fill-0, #FFC700)"/>
<path id="Vector_57" fill-rule="evenodd" clip-rule="evenodd" d="M1332.29 1150.05C1322.99 1150.56 1317.55 1150.05 1308.51 1147.42C1307.15 1151.82 1306.76 1155.82 1308.14 1159.89C1314.03 1162.25 1321.8 1163.5 1332.34 1164.18C1329.61 1157.99 1329.22 1154.38 1332.29 1150.05Z" fill="var(--fill-0, #FF5257)"/>
<path id="Vector_58" fill-rule="evenodd" clip-rule="evenodd" d="M21.353 1800.94C13.6756 1806.21 8.77029 1808.61 -0.320487 1811.06C0.808247 1815.53 2.55801 1819.14 5.84966 1821.91C12.1078 1820.86 19.3919 1817.88 28.7555 1812.98C23.1957 1809.11 20.9856 1806.24 21.353 1800.94Z" fill="var(--fill-0, #A550A7)"/>
<path id="Vector_59" fill-rule="evenodd" clip-rule="evenodd" d="M767.753 1660.07C771.75 1654.64 771.581 1649.74 771.086 1642.37C765.387 1638.04 761.543 1634.16 756.328 1631.27C750.358 1636.09 745.31 1637.98 735.661 1637.57C746.608 1648.87 754.298 1653.59 767.753 1660.07Z" fill="var(--fill-0, #FFC700)"/>
<path id="Vector_60" fill-rule="evenodd" clip-rule="evenodd" d="M418.64 887.89C411.378 893.723 406.666 896.482 397.784 899.605C399.244 903.975 401.259 907.452 404.748 909.96C410.91 908.445 417.951 904.936 426.922 899.348C421.089 895.904 418.67 893.205 418.64 887.89Z" fill="var(--fill-0, #FF5257)"/>
<path id="Vector_61" fill-rule="evenodd" clip-rule="evenodd" d="M1203.86 1049.16C1209.78 1052.38 1214.61 1051.55 1221.85 1050.05C1225.36 1043.82 1228.68 1039.48 1230.83 1033.92C1225.24 1028.66 1222.69 1023.92 1221.78 1014.3C1212.07 1026.69 1208.45 1034.95 1203.86 1049.16Z" fill="var(--fill-0, #FFC700)"/>
<path id="Vector_62" fill-rule="evenodd" clip-rule="evenodd" d="M69.2668 694.082C63.3075 690.931 58.4826 691.823 51.2659 693.402C47.8315 699.677 44.558 704.053 42.4717 709.638C48.1243 714.829 50.7373 719.543 51.7567 729.147C61.318 716.649 64.8436 708.347 69.2668 694.082Z" fill="var(--fill-0, #FF5257)"/>
<path id="Vector_63" fill-rule="evenodd" clip-rule="evenodd" d="M967.544 1274.75C973.067 1267.25 976.915 1263.37 984.699 1258.08C982.168 1254.23 979.329 1251.38 975.314 1249.86C969.746 1252.9 963.839 1258.1 956.601 1265.8C963.122 1267.63 966.152 1269.62 967.544 1274.75Z" fill="var(--fill-0, #FF5257)"/>
<path id="Vector_64" fill-rule="evenodd" clip-rule="evenodd" d="M1034.87 1453.52C1032.89 1459.97 1034.66 1464.54 1037.56 1471.33C1044.37 1473.54 1049.28 1475.93 1055.16 1476.94C1059.2 1470.42 1063.34 1466.97 1072.59 1464.17C1058.52 1457.12 1049.71 1455.2 1034.87 1453.52Z" fill="var(--fill-0, #FF5257)"/>
<path id="Vector_65" fill-rule="evenodd" clip-rule="evenodd" d="M1086.03 812.116C1083.67 805.802 1079.47 803.263 1073.03 799.648C1066.29 802.057 1060.94 803.152 1055.67 805.941C1056.45 813.576 1055.27 818.835 1049.65 826.69C1065.1 823.702 1073.25 819.839 1086.03 812.116Z" fill="var(--fill-0, #A550A7)"/>
<path id="Vector_66" fill-rule="evenodd" clip-rule="evenodd" d="M431.755 934.92C427.142 926.828 425.162 921.74 423.481 912.476C418.935 913.227 415.184 914.668 412.156 917.717C412.679 924.041 415.032 931.548 419.132 941.289C423.455 936.072 426.502 934.11 431.755 934.92Z" fill="var(--fill-0, #FFC700)"/>
<path id="Vector_67" fill-rule="evenodd" clip-rule="evenodd" d="M544.801 963.927C551.378 962.447 554.464 958.633 558.921 952.742C557.452 945.741 557.094 940.288 555.049 934.687C547.379 934.418 542.329 932.535 535.311 925.899C536.17 941.612 538.889 950.212 544.801 963.927Z" fill="var(--fill-0, #FFC700)"/>
<path id="Vector_68" fill-rule="evenodd" clip-rule="evenodd" d="M1226.52 782.96C1220.26 785.475 1217.83 789.734 1214.37 796.264C1216.95 802.939 1218.17 808.264 1221.09 813.464C1228.7 812.502 1233.99 813.551 1241.98 818.976C1238.61 803.605 1234.55 795.55 1226.52 782.96Z" fill="var(--fill-0, #007AFF)"/>
<path id="Vector_69" fill-rule="evenodd" clip-rule="evenodd" d="M414.137 753.962C412.823 760.574 415.058 764.941 418.637 771.405C425.632 772.899 430.762 774.784 436.711 775.185C440.067 768.283 443.836 764.43 452.746 760.705C438.035 755.12 429.071 754.118 414.137 753.962Z" fill="var(--fill-0, #F74F9E)"/>
<path id="Vector_70" fill-rule="evenodd" clip-rule="evenodd" d="M1149.29 876.722C1140.82 872.86 1136.24 869.892 1129.45 863.363C1126.21 866.632 1124.01 869.995 1123.34 874.24C1127.46 879.062 1133.76 883.773 1142.79 889.273C1143.24 882.514 1144.56 879.14 1149.29 876.722Z" fill="var(--fill-0, #61BA47)"/>
<path id="Vector_71" fill-rule="evenodd" clip-rule="evenodd" d="M1322.38 1015.48C1314.44 1020.35 1309.41 1022.49 1300.21 1024.46C1301.1 1028.98 1302.66 1032.68 1305.8 1035.61C1312.11 1034.89 1319.54 1032.3 1329.14 1027.9C1323.79 1023.74 1321.74 1020.76 1322.38 1015.48Z" fill="var(--fill-0, #FF5257)"/>
<path id="Vector_72" fill-rule="evenodd" clip-rule="evenodd" d="M156.317 1581.78C156.253 1591.09 155.416 1596.49 152.227 1605.35C156.537 1606.98 160.505 1607.61 164.653 1606.49C167.371 1600.75 169.098 1593.08 170.432 1582.59C164.077 1584.94 160.457 1585.11 156.317 1581.78Z" fill="var(--fill-0, #007AFF)"/>
<path id="Vector_73" fill-rule="evenodd" clip-rule="evenodd" d="M931.743 719.28C925.234 721.032 922.309 724.971 918.101 731.043C919.86 737.977 920.444 743.41 922.721 748.92C930.395 748.871 935.519 750.542 942.807 756.88C941.295 741.217 938.221 732.737 931.743 719.28Z" fill="var(--fill-0, #F74F9E)"/>
<path id="Vector_74" fill-rule="evenodd" clip-rule="evenodd" d="M27.3826 940.737C23.823 949.344 21.0198 954.03 14.7355 961.041C18.1178 964.17 21.5571 966.248 25.8224 966.768C30.4957 962.476 34.9801 956.011 40.1562 946.797C33.3849 946.584 29.9661 945.381 27.3826 940.737Z" fill="var(--fill-0, #007AFF)"/>
<path id="Vector_75" fill-rule="evenodd" clip-rule="evenodd" d="M174.545 831.582C177.054 837.839 181.311 840.278 187.837 843.739C194.515 841.173 199.841 839.951 205.044 837.04C204.088 829.425 205.142 824.14 210.574 816.154C195.2 819.506 187.142 823.56 174.545 831.582Z" fill="var(--fill-0, #61BA47)"/>
<path id="Vector_76" fill-rule="evenodd" clip-rule="evenodd" d="M332.934 1557.49C327.181 1553.98 322.31 1554.57 315.01 1555.7C311.195 1561.76 307.657 1565.92 305.231 1571.37C310.552 1576.9 312.869 1581.76 313.294 1591.41C323.608 1579.53 327.64 1571.46 332.934 1557.49Z" fill="var(--fill-0, #FFC700)"/>
<path id="Vector_77" fill-rule="evenodd" clip-rule="evenodd" d="M171.203 1733.65C161.903 1734.16 156.465 1733.67 147.424 1731.04C146.068 1735.44 145.685 1739.44 147.063 1743.51C152.956 1745.87 160.725 1747.11 171.272 1747.78C168.532 1741.59 168.135 1737.99 171.203 1733.65Z" fill="var(--fill-0, #FFC700)"/>
<path id="Vector_78" fill-rule="evenodd" clip-rule="evenodd" d="M149.272 692.299C152.517 686.391 151.703 681.553 150.239 674.311C144.019 670.777 139.697 667.434 134.145 665.259C128.865 670.828 124.11 673.365 114.491 674.231C126.834 683.991 135.079 687.649 149.272 692.299Z" fill="var(--fill-0, #FFC700)"/>
<path id="Vector_79" fill-rule="evenodd" clip-rule="evenodd" d="M834.199 667.656C827.506 666.854 823.323 669.419 817.154 673.483C816.201 680.573 814.716 685.832 814.773 691.794C821.912 694.61 826.043 698.071 830.442 706.67C834.88 691.573 835.191 682.558 834.199 667.656Z" fill="var(--fill-0, #FF5257)"/>
<path id="Vector_80" fill-rule="evenodd" clip-rule="evenodd" d="M1059.63 534.264C1057.27 540.579 1058.77 545.249 1061.27 552.203C1067.93 554.802 1072.69 557.486 1078.5 558.837C1082.92 552.564 1087.26 549.367 1096.65 547.122C1083.03 539.246 1074.34 536.817 1059.63 534.264Z" fill="var(--fill-0, #F74F9E)"/>
<path id="Vector_81" fill-rule="evenodd" clip-rule="evenodd" d="M126.704 1538.93C124.821 1529.81 124.512 1524.36 125.78 1515.03C121.224 1514.34 117.212 1514.55 113.389 1516.51C111.929 1522.68 111.844 1530.55 112.73 1541.08C118.455 1537.46 121.959 1536.54 126.704 1538.93Z" fill="var(--fill-0, #F74F9E)"/>
<path id="Vector_82" fill-rule="evenodd" clip-rule="evenodd" d="M164.253 846.494C159.693 851.459 159.331 856.352 159.027 863.733C164.226 868.648 167.627 872.924 172.5 876.36C178.956 872.21 184.178 870.879 193.727 872.33C184.065 859.91 176.929 854.393 164.253 846.494Z" fill="var(--fill-0, #FF5257)"/>
<path id="Vector_83" fill-rule="evenodd" clip-rule="evenodd" d="M779.27 1228.32C785.348 1235.38 788.267 1239.99 791.692 1248.76C796.01 1247.15 799.415 1245.02 801.803 1241.45C800.078 1235.34 796.33 1228.42 790.439 1219.65C787.196 1225.6 784.581 1228.11 779.27 1228.32Z" fill="var(--fill-0, #61BA47)"/>
<path id="Vector_84" fill-rule="evenodd" clip-rule="evenodd" d="M-9.63555 1261.36C-15.5657 1264.56 -17.5039 1269.07 -20.1991 1275.95C-16.8884 1282.29 -15.0679 1287.44 -11.5822 1292.28C-4.12602 1290.46 1.24495 1290.91 9.79776 1295.4C4.71569 1280.5 -0.23028 1272.96 -9.63555 1261.36Z" fill="var(--fill-0, #61BA47)"/>
<path id="Vector_85" fill-rule="evenodd" clip-rule="evenodd" d="M23.1847 943.129C29.9115 942.691 33.5538 939.403 38.8733 934.277C38.5106 927.132 39.0062 921.69 37.8569 915.84C30.3226 914.38 25.6273 911.734 19.7269 904.088C18.1311 919.743 19.4783 928.662 23.1847 943.129Z" fill="var(--fill-0, #61BA47)"/>
<path id="Vector_86" fill-rule="evenodd" clip-rule="evenodd" d="M1230.46 994.774C1237.2 994.642 1240.99 991.523 1246.53 986.644C1246.5 979.49 1247.24 974.077 1246.36 968.18C1238.9 966.379 1234.33 963.523 1228.78 955.616C1226.47 971.182 1227.42 980.153 1230.46 994.774Z" fill="var(--fill-0, #007AFF)"/>
<path id="Vector_87" fill-rule="evenodd" clip-rule="evenodd" d="M1017.62 1083.82C1022.13 1091.97 1024.05 1097.08 1025.62 1106.36C1030.18 1105.66 1033.95 1104.27 1037.01 1101.25C1036.56 1094.93 1034.3 1087.39 1030.31 1077.6C1025.93 1082.77 1022.86 1084.69 1017.62 1083.82Z" fill="var(--fill-0, #A550A7)"/>
<path id="Vector_88" fill-rule="evenodd" clip-rule="evenodd" d="M677.38 -119.577C668.135 -120.706 662.869 -122.154 654.434 -126.335C652.323 -122.239 651.24 -118.369 651.879 -114.121C657.265 -110.765 664.693 -108.172 674.956 -105.648C673.351 -112.23 673.595 -115.846 677.38 -119.577Z" fill="var(--fill-0, #FFC700)"/>
<path id="Vector_89" fill-rule="evenodd" clip-rule="evenodd" d="M1161.73 718.752C1165.97 723.99 1170.76 725.064 1178.02 726.446C1183.64 722.023 1188.37 719.284 1192.48 714.967C1189.32 707.974 1188.77 702.612 1191.6 693.379C1177.9 701.119 1171.4 707.37 1161.73 718.752Z" fill="var(--fill-0, #FF5257)"/>
<path id="Vector_90" fill-rule="evenodd" clip-rule="evenodd" d="M1102.26 959.202C1101.28 952.534 1097.7 949.173 1092.16 944.29C1085.07 945.236 1079.6 945.187 1073.87 946.811C1073.03 954.44 1070.77 959.336 1063.64 965.842C1079.37 966.152 1088.15 964.08 1102.26 959.202Z" fill="var(--fill-0, #F74F9E)"/>
<path id="Vector_91" fill-rule="evenodd" clip-rule="evenodd" d="M4.0468 840.876C11.823 846.003 15.8928 849.643 21.5848 857.143C25.2985 854.415 27.991 851.432 29.3103 847.343C25.9817 841.941 20.4848 836.312 12.4189 829.483C10.9259 836.091 9.0972 839.22 4.0468 840.876Z" fill="var(--fill-0, #FFC700)"/>
<path id="Vector_92" fill-rule="evenodd" clip-rule="evenodd" d="M917.681 1301.34C916.067 1294.79 912.19 1291.78 906.209 1287.45C899.239 1289.06 893.795 1289.53 888.238 1291.69C888.125 1299.36 886.345 1304.45 879.855 1311.6C895.546 1310.42 904.09 1307.53 917.681 1301.34Z" fill="var(--fill-0, #FF5257)"/>
<path id="Vector_93" fill-rule="evenodd" clip-rule="evenodd" d="M618.281 1375.18C626.397 1379.75 630.712 1383.1 636.915 1390.18C640.428 1387.2 642.905 1384.04 643.935 1379.87C640.236 1374.71 634.359 1369.48 625.834 1363.23C624.808 1369.93 623.203 1373.18 618.281 1375.18Z" fill="var(--fill-0, #A550A7)"/>
<path id="Vector_94" fill-rule="evenodd" clip-rule="evenodd" d="M749.347 1584.56C757.005 1579.26 761.902 1576.84 770.984 1574.36C769.839 1569.89 768.076 1566.28 764.775 1563.53C758.52 1564.61 751.247 1567.6 741.901 1572.54C747.475 1576.39 749.695 1579.25 749.347 1584.56Z" fill="var(--fill-0, #FF5257)"/>
<path id="Vector_95" fill-rule="evenodd" clip-rule="evenodd" d="M263.28 -40.3636C254.266 -42.7129 249.241 -44.8491 241.437 -50.1159C238.8 -46.3376 237.211 -42.6464 237.279 -38.3501C242.17 -34.3075 249.187 -30.749 259.023 -26.8813C258.308 -33.6182 259.032 -37.1693 263.28 -40.3636Z" fill="var(--fill-0, #A550A7)"/>
<path id="Vector_96" fill-rule="evenodd" clip-rule="evenodd" d="M143.317 786.868C151.126 781.792 156.091 779.518 165.241 777.3C164.226 772.806 162.569 769.145 159.349 766.3C153.066 767.19 145.708 769.977 136.223 774.638C141.683 778.65 143.819 781.577 143.317 786.868Z" fill="var(--fill-0, #FFC700)"/>
<path id="Vector_97" fill-rule="evenodd" clip-rule="evenodd" d="M456.272 734.824C461.649 738.89 466.554 738.784 473.931 738.383C478.327 732.74 482.26 728.946 485.216 723.768C480.469 717.737 478.646 712.665 479.181 703.022C467.738 713.824 462.926 721.454 456.272 734.824Z" fill="var(--fill-0, #007AFF)"/>
<path id="Vector_98" fill-rule="evenodd" clip-rule="evenodd" d="M943.853 585.453C950.38 583.766 953.344 579.856 957.613 573.826C955.923 566.875 955.393 561.436 953.172 555.904C945.498 555.876 940.391 554.154 933.167 547.744C934.522 563.421 937.511 571.931 943.853 585.453Z" fill="var(--fill-0, #F74F9E)"/>
<path id="Vector_99" fill-rule="evenodd" clip-rule="evenodd" d="M1142.67 976.107C1150.96 980.357 1155.4 983.534 1161.88 990.369C1165.27 987.254 1167.63 983.995 1168.49 979.787C1164.59 974.779 1158.52 969.781 1149.76 963.87C1148.99 970.602 1147.51 973.911 1142.67 976.107Z" fill="var(--fill-0, #FFC700)"/>
<path id="Vector_100" fill-rule="evenodd" clip-rule="evenodd" d="M1192.72 1062.6C1188.68 1054.21 1187.05 1049 1186.01 1039.64C1181.42 1040.08 1177.58 1041.26 1174.35 1044.09C1174.44 1050.44 1176.27 1058.09 1179.69 1068.09C1184.37 1063.18 1187.54 1061.43 1192.72 1062.6Z" fill="var(--fill-0, #FF5257)"/>
<path id="Vector_101" fill-rule="evenodd" clip-rule="evenodd" d="M506.378 911.878C507.11 902.592 508.332 897.27 512.148 888.663C507.966 886.73 504.053 885.813 499.836 886.634C496.713 892.158 494.441 899.69 492.358 910.051C498.865 908.166 502.488 908.256 506.378 911.878Z" fill="var(--fill-0, #007AFF)"/>
<path id="Vector_102" fill-rule="evenodd" clip-rule="evenodd" d="M636.767 1656.18C633.151 1664.77 630.317 1669.43 623.987 1676.4C627.349 1679.56 630.775 1681.66 635.036 1682.2C639.738 1677.94 644.264 1671.51 649.501 1662.33C642.731 1662.07 639.32 1660.84 636.767 1656.18Z" fill="var(--fill-0, #A550A7)"/>
<path id="Vector_103" fill-rule="evenodd" clip-rule="evenodd" d="M266.753 1876.84C273.164 1878.93 277.765 1877.22 284.605 1874.43C286.914 1867.66 289.39 1862.79 290.49 1856.93C284.032 1852.78 280.651 1848.59 278.002 1839.3C270.722 1853.25 268.669 1862.03 266.753 1876.84Z" fill="var(--fill-0, #007AFF)"/>
<path id="Vector_104" fill-rule="evenodd" clip-rule="evenodd" d="M238.499 1711.9C244.672 1709.19 246.975 1704.86 250.226 1698.22C247.448 1691.63 246.058 1686.35 242.982 1681.24C235.401 1682.44 230.085 1681.55 221.93 1676.38C225.771 1691.64 230.079 1699.56 238.499 1711.9Z" fill="var(--fill-0, #F74F9E)"/>
<path id="Vector_105" fill-rule="evenodd" clip-rule="evenodd" d="M965.123 1013.65C959.676 1021.2 955.868 1025.12 948.138 1030.49C950.708 1034.31 953.576 1037.13 957.607 1038.62C963.143 1035.52 968.997 1030.26 976.157 1022.49C969.616 1020.72 966.567 1018.76 965.123 1013.65Z" fill="var(--fill-0, #FF5257)"/>
<path id="Vector_106" fill-rule="evenodd" clip-rule="evenodd" d="M517.594 1414.39C520.911 1405.69 523.581 1400.93 529.666 1393.74C526.198 1390.71 522.701 1388.73 518.423 1388.33C513.872 1392.75 509.571 1399.34 504.656 1408.7C511.43 1408.72 514.882 1409.82 517.594 1414.39Z" fill="var(--fill-0, #FF5257)"/>
<path id="Vector_107" fill-rule="evenodd" clip-rule="evenodd" d="M1023.27 884.276C1019.36 892.727 1016.36 897.293 1009.79 904.036C1013.04 907.303 1016.39 909.523 1020.63 910.22C1025.48 906.126 1030.23 899.853 1035.78 890.863C1029.03 890.368 1025.66 889.024 1023.27 884.276Z" fill="var(--fill-0, #A550A7)"/>
<path id="Vector_108" fill-rule="evenodd" clip-rule="evenodd" d="M238.465 894.528C231.82 893.395 227.514 895.748 221.151 899.5C219.847 906.534 218.102 911.713 217.863 917.67C224.854 920.838 228.807 924.5 232.773 933.307C237.956 918.449 238.715 909.461 238.465 894.528Z" fill="var(--fill-0, #007AFF)"/>
<path id="Vector_109" fill-rule="evenodd" clip-rule="evenodd" d="M278.162 677.385C284.73 678.901 289.164 676.8 295.734 673.421C297.442 666.475 299.483 661.405 300.066 655.472C293.27 651.906 289.535 648.021 286.084 639C280.051 653.533 278.775 662.463 278.162 677.385Z" fill="var(--fill-0, #F74F9E)"/>
<path id="Vector_110" fill-rule="evenodd" clip-rule="evenodd" d="M73.7951 708.993C80.4397 702.466 84.8535 699.251 93.3806 695.26C91.4929 691.056 89.1414 687.798 85.42 685.65C79.4393 687.77 72.7824 691.964 64.4127 698.417C70.5604 701.263 73.2358 703.708 73.7951 708.993Z" fill="var(--fill-0, #F74F9E)"/>
<path id="Vector_111" fill-rule="evenodd" clip-rule="evenodd" d="M1117.92 949.551C1111.6 947.206 1106.93 948.721 1099.98 951.23C1097.4 957.9 1094.72 962.666 1093.39 968.476C1099.67 972.884 1102.87 977.215 1105.14 986.604C1112.99 972.964 1115.4 964.272 1117.92 949.551Z" fill="var(--fill-0, #FF5257)"/>
<path id="Vector_112" fill-rule="evenodd" clip-rule="evenodd" d="M1124.89 1808.89C1115.84 1806.69 1110.78 1804.64 1102.89 1799.51C1100.32 1803.33 1098.79 1807.05 1098.93 1811.35C1103.89 1815.31 1110.97 1818.74 1120.87 1822.44C1120.04 1815.72 1120.7 1812.15 1124.89 1808.89Z" fill="var(--fill-0, #A550A7)"/>
<path id="Vector_113" fill-rule="evenodd" clip-rule="evenodd" d="M767.476 600.103C771.635 594.798 771.613 589.891 771.34 582.508C765.774 578.015 762.049 574.017 756.922 570.972C750.811 575.614 745.708 577.349 736.075 576.647C746.678 588.275 754.223 593.218 767.476 600.103Z" fill="var(--fill-0, #F74F9E)"/>
<path id="Vector_114" fill-rule="evenodd" clip-rule="evenodd" d="M1130.16 1498.61C1139.39 1497.36 1144.85 1497.43 1154.07 1499.33C1155.08 1494.84 1155.14 1490.82 1153.45 1486.87C1147.39 1484.99 1139.55 1484.37 1128.98 1484.53C1132.2 1490.49 1132.88 1494.05 1130.16 1498.61Z" fill="var(--fill-0, #F74F9E)"/>
<path id="Vector_115" fill-rule="evenodd" clip-rule="evenodd" d="M142.367 756.822C136.964 760.853 135.7 765.594 134.03 772.79C138.225 778.585 140.773 783.419 144.923 787.699C152.037 784.821 157.416 784.483 166.529 787.682C159.342 773.684 153.354 766.937 142.367 756.822Z" fill="var(--fill-0, #F74F9E)"/>
<path id="Vector_116" fill-rule="evenodd" clip-rule="evenodd" d="M1125.74 1733.23C1117.48 1728.92 1113.07 1725.71 1106.65 1718.82C1103.23 1721.91 1100.85 1725.15 1099.95 1729.35C1103.81 1734.39 1109.84 1739.43 1118.56 1745.41C1119.38 1738.69 1120.88 1735.39 1125.74 1733.23Z" fill="var(--fill-0, #007AFF)"/>
<path id="Vector_117" fill-rule="evenodd" clip-rule="evenodd" d="M256.117 800.889C263.472 795.174 268.229 792.492 277.16 789.514C275.772 785.12 273.813 781.611 270.365 779.047C264.179 780.462 257.082 783.857 248.021 789.298C253.799 792.837 256.173 795.574 256.117 800.889Z" fill="var(--fill-0, #61BA47)"/>
<path id="Vector_118" fill-rule="evenodd" clip-rule="evenodd" d="M128.541 1191.83C123.667 1199.77 120.158 1203.95 112.846 1209.88C115.691 1213.51 118.759 1216.1 122.889 1217.29C128.181 1213.79 133.631 1208.11 140.197 1199.83C133.544 1198.55 130.358 1196.83 128.541 1191.83Z" fill="var(--fill-0, #F74F9E)"/>
<path id="Vector_119" fill-rule="evenodd" clip-rule="evenodd" d="M943.131 870.537C945.851 864.369 944.618 859.62 942.53 852.533C936.027 849.554 931.43 846.599 925.71 844.915C920.934 850.922 916.418 853.864 906.911 855.563C920.056 864.212 928.588 867.139 943.131 870.537Z" fill="var(--fill-0, #A550A7)"/>
<path id="Vector_120" fill-rule="evenodd" clip-rule="evenodd" d="M241.154 767.895C249.984 770.86 254.85 773.338 262.272 779.131C265.164 775.543 267.003 771.971 267.232 767.68C262.631 763.309 255.876 759.275 246.331 754.738C246.579 761.508 245.613 765.001 241.154 767.895Z" fill="var(--fill-0, #F74F9E)"/>
<path id="Vector_121" fill-rule="evenodd" clip-rule="evenodd" d="M228.977 1007.09C235.193 1014.03 238.202 1018.59 241.798 1027.29C246.083 1025.6 249.446 1023.4 251.763 1019.78C249.919 1013.71 246.036 1006.86 239.973 998.207C236.848 1004.22 234.283 1006.78 228.977 1007.09Z" fill="var(--fill-0, #61BA47)"/>
<path id="Vector_122" fill-rule="evenodd" clip-rule="evenodd" d="M990.269 1869.79C991.438 1863.15 989.108 1858.83 985.389 1852.45C978.362 1851.11 973.193 1849.33 967.237 1849.06C964.032 1856.04 960.349 1859.97 951.522 1863.89C966.351 1869.15 975.336 1869.96 990.269 1869.79Z" fill="var(--fill-0, #F74F9E)"/>
<path id="Vector_123" fill-rule="evenodd" clip-rule="evenodd" d="M231.754 712.15C235.177 717.957 239.753 719.727 246.727 722.165C252.941 718.622 258.022 716.612 262.727 712.949C260.634 705.565 260.88 700.182 265.047 691.468C250.353 697.099 242.998 702.321 231.754 712.15Z" fill="var(--fill-0, #FFC700)"/>
<path id="Vector_124" fill-rule="evenodd" clip-rule="evenodd" d="M1039.8 1507.11C1039.18 1500.4 1035.8 1496.84 1030.53 1491.66C1023.4 1492.22 1017.95 1491.87 1012.13 1493.17C1010.87 1500.75 1008.35 1505.51 1000.87 1511.61C1016.56 1512.79 1025.44 1511.2 1039.8 1507.11Z" fill="var(--fill-0, #61BA47)"/>
<path id="Vector_125" fill-rule="evenodd" clip-rule="evenodd" d="M1088.14 883.706C1089.03 874.434 1090.34 869.134 1094.3 860.594C1090.15 858.588 1086.26 857.605 1082.03 858.353C1078.81 863.823 1076.41 871.316 1074.15 881.64C1080.69 879.866 1084.31 880.018 1088.14 883.706Z" fill="var(--fill-0, #61BA47)"/>
<path id="Vector_126" fill-rule="evenodd" clip-rule="evenodd" d="M387.465 797.618C385.603 788.491 385.306 783.039 386.596 773.712C382.042 773.01 378.029 773.21 374.202 775.164C372.728 781.336 372.625 789.203 373.486 799.736C379.219 796.126 382.726 795.211 387.465 797.618Z" fill="var(--fill-0, #A550A7)"/>
<path id="Vector_127" fill-rule="evenodd" clip-rule="evenodd" d="M202.201 763.434C208.125 766.65 212.96 765.811 220.193 764.31C223.696 758.073 227.017 753.733 229.164 748.171C223.569 742.919 221.007 738.177 220.093 728.562C210.396 740.955 206.78 749.218 202.201 763.434Z" fill="var(--fill-0, #FF5257)"/>
<path id="Vector_128" fill-rule="evenodd" clip-rule="evenodd" d="M191.17 1112.15C186.307 1104.21 184.169 1099.18 182.2 1089.98C177.679 1090.87 173.975 1092.43 171.044 1095.57C171.764 1101.87 174.35 1109.3 178.753 1118.91C182.91 1113.56 185.895 1111.51 191.17 1112.15Z" fill="var(--fill-0, #A550A7)"/>
<path id="Vector_129" fill-rule="evenodd" clip-rule="evenodd" d="M1321.72 1155.32C1327.85 1152.51 1330.08 1148.14 1333.22 1141.45C1330.33 1134.9 1328.85 1129.64 1325.69 1124.59C1318.13 1125.91 1312.8 1125.12 1304.55 1120.08C1308.65 1135.28 1313.09 1143.13 1321.72 1155.32Z" fill="var(--fill-0, #FFC700)"/>
<path id="Vector_130" fill-rule="evenodd" clip-rule="evenodd" d="M491.157 1348.49C493.67 1342.24 492.281 1337.53 489.96 1330.52C483.361 1327.75 478.668 1324.95 472.896 1323.46C468.322 1329.62 463.906 1332.71 454.46 1334.72C467.885 1342.93 476.509 1345.58 491.157 1348.49Z" fill="var(--fill-0, #FFC700)"/>
<path id="Vector_131" fill-rule="evenodd" clip-rule="evenodd" d="M423.279 1046.05C429.941 1047.07 434.209 1044.65 440.512 1040.8C441.704 1033.75 443.366 1028.54 443.511 1022.58C436.471 1019.52 432.46 1015.92 428.355 1007.18C423.408 1022.12 422.792 1031.12 423.279 1046.05Z" fill="var(--fill-0, #A550A7)"/>
<path id="Vector_132" fill-rule="evenodd" clip-rule="evenodd" d="M629.556 -417.906C624.263 -410.242 620.535 -406.251 612.915 -400.722C615.562 -396.951 618.486 -394.195 622.546 -392.787C628.019 -395.999 633.765 -401.373 640.766 -409.29C634.192 -410.925 631.103 -412.821 629.556 -417.906Z" fill="var(--fill-0, #FF5257)"/>
<path id="Vector_133" fill-rule="evenodd" clip-rule="evenodd" d="M589.608 526.426C596.246 525.252 599.506 521.585 604.231 515.906C603.087 508.844 602.982 503.381 601.198 497.692C593.549 497.067 588.592 494.953 581.888 488C582.019 503.735 584.337 512.453 589.608 526.426Z" fill="var(--fill-0, #FF5257)"/>
<path id="Vector_134" fill-rule="evenodd" clip-rule="evenodd" d="M1348.8 1388.57C1346.95 1382.08 1342.97 1379.22 1336.83 1375.1C1329.93 1376.96 1324.5 1377.62 1319.03 1379.98C1319.19 1387.65 1317.59 1392.8 1311.36 1400.18C1327 1398.44 1335.44 1395.24 1348.8 1388.57Z" fill="var(--fill-0, #007AFF)"/>
<path id="Vector_135" fill-rule="evenodd" clip-rule="evenodd" d="M812.161 1241.35C819.868 1236.12 824.786 1233.75 833.891 1231.35C832.787 1226.88 831.058 1223.25 827.782 1220.47C821.518 1221.48 814.217 1224.42 804.826 1229.26C810.364 1233.17 812.558 1236.05 812.161 1241.35Z" fill="var(--fill-0, #007AFF)"/>
<path id="Vector_136" fill-rule="evenodd" clip-rule="evenodd" d="M419.949 927.991C416.571 933.824 417.275 938.68 418.575 945.953C424.713 949.627 428.959 953.066 434.46 955.367C439.865 949.919 444.676 947.49 454.312 946.842C442.193 936.805 434.032 932.962 419.949 927.991Z" fill="var(--fill-0, #FF5257)"/>
<path id="Vector_137" fill-rule="evenodd" clip-rule="evenodd" d="M425.806 1172.15C434.993 1170.61 440.452 1170.5 449.727 1172.12C450.59 1167.6 450.531 1163.58 448.713 1159.68C442.597 1157.99 434.738 1157.61 424.181 1158.1C427.587 1163.96 428.378 1167.5 425.806 1172.15Z" fill="var(--fill-0, #61BA47)"/>
<path id="Vector_138" fill-rule="evenodd" clip-rule="evenodd" d="M1029.53 1033.04C1022.8 1032.57 1018.75 1035.34 1012.79 1039.71C1012.2 1046.84 1010.98 1052.17 1011.33 1058.12C1018.6 1060.57 1022.9 1063.82 1027.72 1072.19C1031.4 1056.89 1031.26 1047.87 1029.53 1033.04Z" fill="var(--fill-0, #61BA47)"/>
<path id="Vector_139" fill-rule="evenodd" clip-rule="evenodd" d="M112.964 701.671C119.606 700.518 122.877 696.862 127.621 691.198C126.499 684.133 126.412 678.669 124.647 672.974C117 672.325 112.049 670.194 105.368 663.22C105.449 678.955 107.738 687.68 112.964 701.671Z" fill="var(--fill-0, #A550A7)"/>
<path id="Vector_140" fill-rule="evenodd" clip-rule="evenodd" d="M358.175 698.833C349.55 695.315 344.85 692.535 337.809 686.285C334.696 689.683 332.635 693.132 332.136 697.4C336.451 702.052 342.937 706.505 352.177 711.636C352.357 704.864 353.542 701.439 358.175 698.833Z" fill="var(--fill-0, #A550A7)"/>
<path id="Vector_141" fill-rule="evenodd" clip-rule="evenodd" d="M618.842 573.789C613.038 570.361 608.176 571.025 600.893 572.262C597.167 578.369 593.691 582.586 591.344 588.066C596.746 593.518 599.134 598.349 599.7 607.991C609.839 595.957 613.752 587.83 618.842 573.789Z" fill="var(--fill-0, #61BA47)"/>
<path id="Vector_142" fill-rule="evenodd" clip-rule="evenodd" d="M953.664 935.619C946.932 935.959 943.241 939.192 937.847 944.24C938.105 951.389 937.529 956.823 938.593 962.69C946.105 964.26 950.761 966.974 956.548 974.707C958.374 959.077 957.158 950.139 953.664 935.619Z" fill="var(--fill-0, #F74F9E)"/>
<path id="Vector_143" fill-rule="evenodd" clip-rule="evenodd" d="M512.981 1186.04C521.919 1183.42 527.328 1182.66 536.73 1183.17C537.049 1178.57 536.513 1174.59 534.246 1170.94C527.972 1169.99 520.124 1170.54 509.7 1172.28C513.777 1177.69 514.982 1181.11 512.981 1186.04Z" fill="var(--fill-0, #F74F9E)"/>
<path id="Vector_144" fill-rule="evenodd" clip-rule="evenodd" d="M122.708 1277.24C128.605 1280.5 133.447 1279.7 140.692 1278.26C144.247 1272.06 147.605 1267.74 149.798 1262.2C144.247 1256.9 141.725 1252.14 140.892 1242.52C131.091 1254.83 127.406 1263.06 122.708 1277.24Z" fill="var(--fill-0, #FF5257)"/>
<path id="Vector_145" fill-rule="evenodd" clip-rule="evenodd" d="M115.436 1006.21C111.216 997.91 109.481 992.733 108.246 983.399C103.669 983.932 99.8531 985.191 96.6831 988.092C96.9021 994.434 98.8934 1002.05 102.523 1011.97C107.09 1006.97 110.228 1005.15 115.436 1006.21Z" fill="var(--fill-0, #FF5257)"/>
<path id="Vector_146" fill-rule="evenodd" clip-rule="evenodd" d="M-14.9193 739.872C-20.7591 736.504 -25.6134 737.219 -32.8833 738.533C-36.5453 744.678 -39.9769 748.931 -42.2665 754.435C-36.808 759.83 -34.3695 764.636 -33.7027 774.271C-23.6899 762.133 -19.8623 753.965 -14.9193 739.872Z" fill="var(--fill-0, #A550A7)"/>
<path id="Vector_147" fill-rule="evenodd" clip-rule="evenodd" d="M474.71 908.676C474.209 917.976 473.12 923.327 469.519 932.027C473.748 933.856 477.683 934.674 481.879 933.749C484.862 928.149 486.947 920.562 488.771 910.152C482.312 912.199 478.688 912.2 474.71 908.676Z" fill="var(--fill-0, #007AFF)"/>
<path id="Vector_148" fill-rule="evenodd" clip-rule="evenodd" d="M212.873 933.113C208.387 928.082 203.554 927.235 196.24 926.198C190.832 930.881 186.238 933.84 182.335 938.347C185.822 945.184 186.627 950.513 184.233 959.869C197.552 951.491 203.752 944.939 212.873 933.113Z" fill="var(--fill-0, #007AFF)"/>
<path id="Vector_149" fill-rule="evenodd" clip-rule="evenodd" d="M990.959 1392.46C981.845 1394.38 976.395 1394.71 967.06 1393.48C966.387 1398.04 966.614 1402.05 968.594 1405.87C974.775 1407.3 982.642 1407.35 993.17 1406.42C989.522 1400.71 988.584 1397.21 990.959 1392.46Z" fill="var(--fill-0, #007AFF)"/>
<path id="Vector_150" fill-rule="evenodd" clip-rule="evenodd" d="M1238.39 867.758C1232.03 860.952 1228.92 856.459 1225.15 847.835C1220.9 849.617 1217.58 851.886 1215.34 855.553C1217.31 861.584 1221.34 868.344 1227.58 876.873C1230.58 870.798 1233.09 868.185 1238.39 867.758Z" fill="var(--fill-0, #61BA47)"/>
</g>
<defs>
<clipPath id="clip0_0_6">
<rect width="1400" height="1080" fill="white"/>
</clipPath>
</defs>
</svg>
