<svg preserveAspectRatio="none" width="100%" height="100%" overflow="visible" style="display: block;" viewBox="0 0 32 32" fill="none" xmlns="http://www.w3.org/2000/svg">
<g id="Frame">
<g id="Vector">
<g filter="url(#filter0_i_0_4)">
<path d="M15.5267 27.88L15.5173 27.876L15.488 27.86C15.3164 27.7656 15.1461 27.6687 14.9773 27.5693C12.9477 26.3633 11.051 24.9466 9.31867 23.3427C6.25067 20.48 3 16.232 3 11C3 7.096 6.28533 4 10.2507 4C11.353 3.9946 12.4424 4.23779 13.4378 4.71147C14.4331 5.18516 15.3089 5.87716 16 6.736C16.6912 5.87698 17.5672 5.18488 18.5628 4.71118C19.5585 4.23749 20.6481 3.9944 21.7507 4C25.7147 4 29 7.096 29 11C29 16.2333 25.7493 20.4813 22.6813 23.3413C20.949 24.9453 19.0523 26.362 17.0227 27.568C16.8539 27.6678 16.6836 27.7651 16.512 27.86L16.4827 27.876L16.4733 27.8813L16.4693 27.8827C16.3247 27.9593 16.1636 27.9993 16 27.9993C15.8364 27.9993 15.6753 27.9593 15.5307 27.8827L15.5267 27.88Z" fill="var(--fill-0, #FF0000)"/>
</g>
<path d="M21.7549 3.00088C26.2288 3.00308 29.9999 6.50542 30 10.9999C30 16.6532 26.4987 21.1503 23.3633 24.0731L23.3604 24.0751C21.5765 25.7268 19.6232 27.1858 17.5332 28.4276L17.5312 28.4286C17.3543 28.5332 17.176 28.6358 16.9961 28.7353L16.9912 28.7382L16.9688 28.7489L16.8838 28.7987L16.8164 28.8202C16.5594 28.9353 16.2825 28.9989 16 28.9989C15.6989 28.9989 15.4035 28.9281 15.1328 28.7978V28.7987L15.123 28.7948L15.0801 28.7763L15.0381 28.7538L15.0088 28.7382L15.0059 28.7362C14.8258 28.6372 14.6468 28.5358 14.4697 28.4315L14.4668 28.4286C12.3768 27.1867 10.4236 25.7278 8.63965 24.0761L8.63672 24.0741C5.50171 21.1489 2 16.6519 2 10.9999C2.00005 6.50542 5.77114 3.00327 10.2461 3.00088V2.99991L10.248 3.00088L10.251 2.99991V3.00088C11.5018 2.99554 12.7377 3.27104 13.8672 3.8085C14.6524 4.18215 15.3696 4.67823 15.999 5.27139C16.6288 4.67774 17.3471 4.18236 18.1328 3.8085C19.2628 3.27089 20.4997 2.99524 21.751 3.00088V2.99991C21.7526 2.99991 21.7542 2.9999 21.7559 2.99991L21.7549 3.00088Z" stroke="var(--stroke-0, white)" stroke-width="2"/>
</g>
</g>
<defs>
<filter id="filter0_i_0_4" x="1" y="1.99991" width="30" height="27.9994" filterUnits="userSpaceOnUse" color-interpolation-filters="sRGB">
<feFlood flood-opacity="0" result="BackgroundImageFix"/>
<feBlend mode="normal" in="SourceGraphic" in2="BackgroundImageFix" result="shape"/>
<feColorMatrix in="SourceAlpha" type="matrix" values="0 0 0 0 0 0 0 0 0 0 0 0 0 0 0 0 0 0 127 0" result="hardAlpha"/>
<feOffset dy="-6"/>
<feComposite in2="hardAlpha" operator="arithmetic" k2="-1" k3="1"/>
<feColorMatrix type="matrix" values="0 0 0 0 0.725492 0 0 0 0 0 0 0 0 0 0 0 0 0 1 0"/>
<feBlend mode="normal" in2="shape" result="effect1_innerShadow_0_4"/>
</filter>
</defs>
</svg>
