<svg preserveAspectRatio="none" width="100%" height="100%" overflow="visible" style="display: block;" viewBox="0 0 200.75 192.998" fill="none" xmlns="http://www.w3.org/2000/svg">
<g id="Frame">
<g id="Vector" filter="url(#filter0_d_0_4)">
<path d="M98.5408 128.535L98.5047 128.52L98.391 128.458C97.726 128.092 97.0663 127.716 96.4122 127.332C88.5475 122.658 81.1978 117.168 74.4848 110.953C62.5963 99.8604 50 83.3994 50 63.1254C50 47.9974 62.7307 36.0004 78.0963 36.0004C82.3679 35.9794 86.5892 36.9218 90.4463 38.7573C94.3035 40.5929 97.6971 43.2744 100.375 46.6024C103.053 43.2737 106.448 40.5918 110.306 38.7562C114.164 36.9206 118.386 35.9787 122.659 36.0004C138.019 36.0004 150.75 47.9974 150.75 63.1254C150.75 83.4045 138.154 99.8655 126.265 110.948C119.552 117.163 112.203 122.653 104.338 127.326C103.684 127.713 103.024 128.09 102.359 128.458L102.245 128.52L102.209 128.541L102.194 128.546C101.633 128.842 101.009 128.998 100.375 128.998C99.741 128.998 99.1166 128.842 98.5563 128.546L98.5408 128.535Z" fill="var(--fill-0, black)" fill-opacity="0.2" shape-rendering="crispEdges"/>
<path d="M122.673 33.001C139.562 33.0083 153.75 46.226 153.75 63.125C153.75 84.6642 140.401 101.872 128.311 113.143L128.304 113.149C121.436 119.508 113.916 125.124 105.87 129.905L105.864 129.909C105.185 130.31 104.501 130.702 103.811 131.083L103.803 131.088L103.796 131.092L103.718 131.134L103.697 131.146L103.44 131.292L103.324 131.33C102.403 131.767 101.397 131.998 100.375 131.998C99.2979 131.998 98.238 131.742 97.2773 131.258L97.1924 131.222L97.0684 131.153L96.9541 131.092L96.9443 131.086C96.2542 130.706 95.5695 130.317 94.8906 129.917L94.8799 129.91C86.8339 125.129 79.314 119.513 72.4463 113.154L72.4385 113.146C60.349 101.866 47 84.6591 47 63.125C47.0002 46.2258 61.1878 33.0084 78.082 33.001V33C78.0846 33 78.0872 33.001 78.0898 33.001C78.092 33.001 78.0945 33 78.0967 33V33.001C82.8141 32.9801 87.4755 34.0217 91.7354 36.0488C94.945 37.5763 97.8639 39.6339 100.374 42.127C102.885 39.6327 105.806 37.5746 109.018 36.0469C113.278 34.0198 117.941 32.9792 122.659 33.001V33C122.661 33 122.663 33.001 122.665 33.001C122.668 33.001 122.671 33 122.674 33L122.673 33.001Z" stroke="var(--stroke-0, white)" stroke-width="6" shape-rendering="crispEdges"/>
</g>
</g>
<defs>
<filter id="filter0_d_0_4" x="0" y="9.53674e-07" width="200.75" height="192.998" filterUnits="userSpaceOnUse" color-interpolation-filters="sRGB">
<feFlood flood-opacity="0" result="BackgroundImageFix"/>
<feColorMatrix in="SourceAlpha" type="matrix" values="0 0 0 0 0 0 0 0 0 0 0 0 0 0 0 0 0 0 127 0" result="hardAlpha"/>
<feOffset dy="14"/>
<feGaussianBlur stdDeviation="22"/>
<feComposite in2="hardAlpha" operator="out"/>
<feColorMatrix type="matrix" values="0 0 0 0 0 0 0 0 0 0 0 0 0 0 0 0 0 0 0.24 0"/>
<feBlend mode="normal" in2="BackgroundImageFix" result="effect1_dropShadow_0_4"/>
<feBlend mode="normal" in="SourceGraphic" in2="effect1_dropShadow_0_4" result="shape"/>
</filter>
</defs>
</svg>
