<svg preserveAspectRatio="none" width="100%" height="100%" overflow="visible" style="display: block;" viewBox="0 0 124 124" fill="none" xmlns="http://www.w3.org/2000/svg">
<g id="Frame">
<g id="Vector">
<g filter="url(#filter0_i_0_4)">
<path d="M60.1658 108.035L60.1297 108.02L60.016 107.958C59.351 107.592 58.6913 107.216 58.0372 106.831C50.1725 102.158 42.8228 96.6681 36.1098 90.4528C24.2213 79.36 11.625 62.899 11.625 42.625C11.625 27.497 24.3557 15.5 39.7213 15.5C43.9929 15.4791 48.2142 16.4214 52.0713 18.257C55.9285 20.0925 59.3221 22.774 62 26.102C64.6784 22.7733 68.0729 20.0914 71.931 18.2558C75.7891 16.4203 80.0114 15.4783 84.2838 15.5C99.6443 15.5 112.375 27.497 112.375 42.625C112.375 62.9042 99.7787 79.3652 87.8902 90.4477C81.1774 96.663 73.8276 102.153 65.9628 106.826C65.3087 107.213 64.649 107.59 63.984 107.958L63.8703 108.02L63.8342 108.04L63.8187 108.045C63.2584 108.342 62.634 108.497 62 108.497C61.366 108.497 60.7416 108.342 60.1813 108.045L60.1658 108.035Z" fill="var(--fill-0, #FF0000)"/>
</g>
<path d="M84.2979 12.5006C101.187 12.5079 115.375 25.7257 115.375 42.6246C115.375 64.1638 102.026 81.3712 89.9355 92.6422L89.9287 92.649C83.0611 99.0078 75.5413 104.624 67.4951 109.405L67.4893 109.409C66.8105 109.81 66.1257 110.201 65.4355 110.583L65.4277 110.588L65.4209 110.591L65.3428 110.633L65.3223 110.645L65.0654 110.792L64.9492 110.83C64.0282 111.267 63.0219 111.498 62 111.498C60.9229 111.498 59.863 111.242 58.9023 110.757L58.8174 110.721L58.6934 110.653L58.5791 110.591L58.5693 110.586C57.8792 110.206 57.1945 109.816 56.5156 109.417L56.5049 109.41C48.4589 104.629 40.939 99.0125 34.0713 92.6539L34.0635 92.6461C21.974 81.3657 8.625 64.1587 8.625 42.6246C8.62521 25.7254 22.8128 12.5081 39.707 12.5006V12.4996C39.7096 12.4996 39.7122 12.5006 39.7148 12.5006C39.717 12.5006 39.7195 12.4996 39.7217 12.4996V12.5006C44.4391 12.4798 49.1005 13.5213 53.3604 15.5485C56.57 17.0759 59.4889 19.1335 61.999 21.6266C64.5101 19.1323 67.4315 17.0743 70.6426 15.5465C74.9034 13.5194 79.566 12.4789 84.2842 12.5006V12.4996C84.2861 12.4996 84.2881 12.5006 84.29 12.5006C84.293 12.5006 84.2959 12.4996 84.2988 12.4996L84.2979 12.5006Z" stroke="var(--stroke-0, white)" stroke-width="6"/>
</g>
</g>
<defs>
<filter id="filter0_i_0_4" x="5.625" y="9.49963" width="112.75" height="104.998" filterUnits="userSpaceOnUse" color-interpolation-filters="sRGB">
<feFlood flood-opacity="0" result="BackgroundImageFix"/>
<feBlend mode="normal" in="SourceGraphic" in2="BackgroundImageFix" result="shape"/>
<feColorMatrix in="SourceAlpha" type="matrix" values="0 0 0 0 0 0 0 0 0 0 0 0 0 0 0 0 0 0 127 0" result="hardAlpha"/>
<feOffset dy="-14"/>
<feComposite in2="hardAlpha" operator="arithmetic" k2="-1" k3="1"/>
<feColorMatrix type="matrix" values="0 0 0 0 0.725492 0 0 0 0 0 0 0 0 0 0 0 0 0 1 0"/>
<feBlend mode="normal" in2="shape" result="effect1_innerShadow_0_4"/>
</filter>
</defs>
</svg>
