<svg preserveAspectRatio="none" width="100%" height="100%" overflow="visible" style="display: block;" viewBox="0 0 29.8182 30.3794" fill="none" xmlns="http://www.w3.org/2000/svg">
<g id="Frame">
<g id="Vector" filter="url(#filter0_d_0_10)">
<path fill-rule="evenodd" clip-rule="evenodd" d="M13.6971 3.21C14.1451 2.133 15.6731 2.133 16.1211 3.21L18.2031 8.216L23.6071 8.65C24.7711 8.743 25.2431 10.195 24.3561 10.955L20.2391 14.482L21.4961 19.755C21.7671 20.891 20.5321 21.788 19.5361 21.18L14.9091 18.354L10.2821 21.18C9.28609 21.788 8.05109 20.89 8.32209 19.755L9.57909 14.482L5.46209 10.955C4.57509 10.195 5.04709 8.743 6.21109 8.65L11.6151 8.216L13.6971 3.21Z" fill="var(--fill-0, #FFD400)"/>
<path d="M13.2358 3.01748C13.8548 1.53056 15.9634 1.53056 16.5824 3.01748V3.01846L18.5463 7.74112L23.6469 8.15127C25.2545 8.27972 25.9057 10.2856 24.6811 11.3349L20.7953 14.663L21.9828 19.6386C22.357 21.2071 20.6514 22.4461 19.2758 21.6064L14.9086 18.9394L10.5424 21.6064C9.16663 22.4462 7.46112 21.206 7.83536 19.6386L9.02188 14.663L5.13712 11.3349C3.91253 10.2856 4.5637 8.27972 6.1713 8.15127L11.2709 7.74112L13.2358 3.01846V3.01748Z" stroke="var(--stroke-0, white)"/>
</g>
</g>
<defs>
<filter id="filter0_d_0_10" x="-1.19209e-07" y="1.40225" width="29.8182" height="28.9771" filterUnits="userSpaceOnUse" color-interpolation-filters="sRGB">
<feFlood flood-opacity="0" result="BackgroundImageFix"/>
<feColorMatrix in="SourceAlpha" type="matrix" values="0 0 0 0 0 0 0 0 0 0 0 0 0 0 0 0 0 0 127 0" result="hardAlpha"/>
<feOffset dy="4"/>
<feGaussianBlur stdDeviation="2"/>
<feComposite in2="hardAlpha" operator="out"/>
<feColorMatrix type="matrix" values="0 0 0 0 0 0 0 0 0 0 0 0 0 0 0 0 0 0 0.06 0"/>
<feBlend mode="normal" in2="BackgroundImageFix" result="effect1_dropShadow_0_10"/>
<feBlend mode="normal" in="SourceGraphic" in2="effect1_dropShadow_0_10" result="shape"/>
</filter>
</defs>
</svg>
